<?xml version="1.0" encoding="utf-8"?>
<!-- Generator: Adobe Illustrator 22.1.0, SVG Export Plug-In . SVG Version: 6.00 Build 0)  -->
<svg version="1.1" id="Capa_1" xmlns="http://www.w3.org/2000/svg" xmlns:xlink="http://www.w3.org/1999/xlink" x="0px" y="0px"
	 viewBox="0 0 512 512" style="enable-background:new 0 0 512 512;" xml:space="preserve">
<style type="text/css">
	.st0{fill:#FFFFFF;}
</style>
<g>
	<g>
		<path class="st0" d="M346,0c-5.5,0-10,4.5-10,10v46c0,5.5,4.5,10,10,10s10-4.5,10-10V10C356,4.5,351.5,0,346,0z"/>
	</g>
</g>
<g>
	<g>
		<path class="st0" d="M116,312c-5.5,0-10,4.5-10,10s4.5,10,10,10s10-4.5,10-10S121.5,312,116,312z"/>
	</g>
</g>
<g>
	<g>
		<path class="st0" d="M486,292c0-22.1-17.9-40-40-40h-74.7c11.6-29.6,16.2-64.4,15.3-95.5c-0.2-5.9-0.4-9.3-0.7-11.5
			c-0.5-21.6-18.3-39-40-39c-22.1,0-40,17.9-40,40v10c0,63.2-81.2,98.8-142.5,114c-4.6-10.6-15.2-18-27.5-18H36c-5.5,0-10,4.5-10,10
			v240c0,5.5,4.5,10,10,10h100c12.2,0,22.7-7.3,27.4-17.8c5.1,1.3,9.8,2.5,14.1,3.7c34.9,9.1,54.1,14.1,100.9,14.1H386
			c22.1,0,40-17.9,40-40c0-8.2-2.5-15.9-6.8-22.2c15.4-5.4,26.8-20.2,26.8-37.8c0-8.2-2.4-15.9-6.7-22.3
			c15.4-5.4,26.7-20.1,26.7-37.7c0-8.2-2.5-15.9-6.8-22.2C474.7,324.4,486,309.6,486,292z M146,482c0,5.5-4.5,10-10,10H46V272h90
			c5.5,0,10,4.5,10,10V482z M446,312c-21.4,0-26.6,0-50,0c-5.5,0-10,4.5-10,10s4.5,10,10,10h30c11,0,20,9,20,20c0,11-9,20-20,20h-50
			c-5.5,0-10,4.5-10,10s4.5,10,10,10h30c10.9,0,20,8.7,20,20c0,11-9,20-20,20c-21.4,0-26.6,0-50,0c-5.5,0-10,4.5-10,10s4.5,10,10,10
			h30c11,0,20,9,20,20s-9,20-20,20H278.5c-44.2,0-61.5-4.5-95.9-13.5c-5-1.3-10.6-2.8-16.6-4.3V290c72.4-17.2,160-59.3,160-134v-10
			c0-11,9-20,20-20c11,0,20,9,20,20v0c0,4.3,5.4,57.7-16.3,106H316c-5.5,0-10,4.5-10,10s4.5,10,10,10c7,0,118.6,0,130,0
			c11,0,20,9,20,20C466,303,457,312,446,312z"/>
	</g>
</g>
<g>
	<g>
		<path class="st0" d="M116,352c-5.5,0-10,4.5-10,10v80c0,5.5,4.5,10,10,10s10-4.5,10-10v-80C126,356.5,121.5,352,116,352z"/>
	</g>
</g>
<g>
	<g>
		<path class="st0" d="M266,126h-40c-5.5,0-10,4.5-10,10s4.5,10,10,10h40c5.5,0,10-4.5,10-10S271.5,126,266,126z"/>
	</g>
</g>
<g>
	<g>
		<path class="st0" d="M466,126h-40c-5.5,0-10,4.5-10,10s4.5,10,10,10h40c5.5,0,10-4.5,10-10S471.5,126,466,126z"/>
	</g>
</g>
<g>
	<g>
		<path class="st0" d="M437.9,44.1c-3.9-3.9-10.2-3.9-14.1,0l-28.3,28.3c-3.9,3.9-3.9,10.2,0,14.1c3.9,3.9,10.2,3.9,14.1,0
			l28.3-28.3C441.8,54.3,441.8,48,437.9,44.1z"/>
	</g>
</g>
<g>
	<g>
		<path class="st0" d="M296.5,72.4l-28.3-28.3c-3.9-3.9-10.2-3.9-14.1,0c-3.9,3.9-3.9,10.2,0,14.1l28.3,28.3
			c3.9,3.9,10.2,3.9,14.1,0C300.4,82.6,300.4,76.3,296.5,72.4z"/>
	</g>
</g>
</svg>
