<?xml version="1.0" encoding="utf-8"?>
<!-- Generator: Adobe Illustrator 22.1.0, SVG Export Plug-In . SVG Version: 6.00 Build 0)  -->
<svg version="1.1" id="Capa_1" xmlns="http://www.w3.org/2000/svg" xmlns:xlink="http://www.w3.org/1999/xlink" x="0px" y="0px"
	 viewBox="0 0 512 512" style="enable-background:new 0 0 512 512;" xml:space="preserve">
<style type="text/css">
	.st0{fill:#FFFFFF;}
</style>
<g>
	<path class="st0" d="M242.8,348.6l-6.9,14l-15.5,2.3c-12,1.7-16.8,16.5-8.1,25l11.2,10.9l-2.6,15.4c-2.1,12,10.5,21.1,21.3,15.5
		l13.9-7.3l13.9,7.3c10.8,5.7,23.3-3.5,21.3-15.5l-2.6-15.4l11.2-10.9c8.7-8.5,3.9-23.3-8.1-25l-15.5-2.3l-6.9-14
		C263.8,337.7,248.2,337.7,242.8,348.6L242.8,348.6z M249.3,369.4l6.7-13.6l6.7,13.6c2.1,4.3,6.3,7.3,11,8l15,2.2l-10.8,10.6
		c-3.5,3.4-5,8.2-4.2,13l2.6,14.9l-13.4-7c-4.3-2.2-9.4-2.2-13.6,0l-13.4,7l2.6-14.9c0.8-4.8-0.8-9.6-4.2-13l-10.8-10.6l15-2.2
		C243,376.8,247.2,373.8,249.3,369.4L249.3,369.4z"/>
	<path class="st0" d="M266.2,311.6c-0.9,4,1.7,8,5.7,8.9c33.2,7.3,57.3,37.4,57.3,71.4c0,40.3-32.8,73.2-73.2,73.2
		c-40.3,0-73.2-32.8-73.2-73.2c0-34,24.1-64.1,57.3-71.4c4-0.9,6.6-4.9,5.7-8.9c-0.9-4-4.9-6.6-8.9-5.7c-39.7,8.8-69,44.2-69,86.1
		c0,48.6,39.5,88.2,88.2,88.2s88.2-39.5,88.2-88.2c0-41.9-29.4-77.3-69-86.1C271.1,305,267.1,307.6,266.2,311.6z"/>
	<path class="st0" d="M337.3,123c3.8,1.6,8.2-0.3,9.8-4.1l41-100.3C391.8,9.7,385.2,0,375.7,0h-54.4c-5.5,0-10.4,3.3-12.5,8.4
		l-52.8,129l-52.8-129c0,0,0,0,0,0c-2.1-5.1-7-8.4-12.5-8.4h-54.4c-9.6,0-16.1,9.7-12.5,18.6l86.7,211.7c-9,2.9-15.5,11.4-15.5,21.3
		v37c-35.3,20.9-59.1,59.4-59.1,103.4c0,66.2,53.9,120.1,120.1,120.1s120.1-53.9,120.1-120.1c0-44-23.7-82.5-59.1-103.4v-37
		c0-9.9-6.5-18.4-15.5-21.3l32.3-78.9c1.6-3.8-0.3-8.2-4.1-9.8c-3.8-1.6-8.2,0.3-9.8,4.1l-34.2,83.5h-51.1
		C238.8,219,318.9,23.4,322.3,15h51.1l-40.2,98.2C331.6,117,333.5,121.4,337.3,123L337.3,123z M361.1,391.9
		c0,57.9-47.1,105.1-105.1,105.1s-105.1-47.1-105.1-105.1c0-58.3,47.5-105.1,105.1-105.1h0C313.9,286.9,361.1,334,361.1,391.9
		L361.1,391.9z M294.6,244.2c4.1,0,7.4,3.3,7.4,7.4V281c-14.4-6-30.1-9.1-46-9.1c0,0,0,0,0,0c-16,0-31.6,3.2-45.9,9.1v-29.4
		c0-4.1,3.3-7.4,7.4-7.4L294.6,244.2L294.6,244.2z M222.4,219.6L138.6,15h51.1l58.2,142.2L222.4,219.6z"/>
</g>
</svg>
