<?xml version="1.0" encoding="utf-8"?>
<!-- Generator: Adobe Illustrator 22.1.0, SVG Export Plug-In . SVG Version: 6.00 Build 0)  -->
<svg version="1.1" id="Layer_1" xmlns="http://www.w3.org/2000/svg" xmlns:xlink="http://www.w3.org/1999/xlink" x="0px" y="0px"
	 viewBox="0 0 502 502" style="enable-background:new 0 0 502 502;" xml:space="preserve">
<style type="text/css">
	.st0{fill:#FFFFFF;}
</style>
<g>
	<g>
		<g>
			<path class="st0" d="M125.8,272.2h-23.9c-5.5,0-10,4.5-10,10s4.5,10,10,10h23.9c5.5,0,10-4.5,10-10S131.4,272.2,125.8,272.2z"/>
			<path class="st0" d="M443.8,184c27.2-43.1,41-75,41-95c0-49-39.9-88.9-88.9-88.9c-44,0-80.6,32.1-87.7,74.1
				c-22.9-7.8-46.8-11.8-71.2-11.8c-58.7,0-113.9,22.9-155.4,64.4C40,168.2,17.1,223.4,17.1,282.2c0,58.7,22.9,113.9,64.4,155.4
				C123.1,479.1,178.3,502,237,502c58.7,0,113.9-22.9,155.4-64.4c41.5-41.5,64.4-96.7,64.4-155.4c0-31.1-6.3-61-18.8-89.1
				C439.9,190.1,441.9,187.1,443.8,184z M395.9,20c38,0,68.9,30.9,68.9,68.9c0,29.4-44.2,96.1-68.9,130
				c-24.7-33.8-68.9-100.5-68.9-130C327,50.9,357.9,20,395.9,20z M307.4,95.1c2.4,20.2,16,50,40.6,88.9c19.8,31.2,39.2,56.7,40,57.7
				c1.9,2.5,4.8,3.9,7.9,3.9s6-1.4,7.9-3.9c0.5-0.7,9.2-12,20.7-28.6c7,18.9,11,38.7,12,59.1H325.8c-0.9-53.5-9.2-103.5-23.7-141.9
				c-6.7-17.9-14.6-32.5-23.3-43.5C288.6,88.8,298.1,91.6,307.4,95.1z M237,82.3c31.7,0,66.9,77.4,68.9,189.8H190.2
				c-5.5,0-10,4.5-10,10s4.5,10,10,10h115.6c-0.5,30.5-3.5,58.5-8.2,83c-19.5-5.6-39.9-8.5-60.6-8.5c-20.7,0-41.1,2.9-60.6,8.5
				c-5.2-27.2-8.3-58.6-8.3-93c0-34,3-65.1,8.1-92c19.6,5.6,40,8.5,60.8,8.5c13.9,0,27.8-1.3,41.3-3.9c5.4-1,9-6.3,8-11.7
				c-1-5.4-6.3-9-11.7-8c-12.3,2.3-25,3.5-37.6,3.5c-19.4,0-38.4-2.8-56.6-8.1C193.8,115.8,216.2,82.3,237,82.3z M195,86.8
				c-8.7,11-16.5,25.6-23.2,43.5c-3.9,10.4-7.4,21.7-10.4,33.6c-19.7-8-38.1-19.2-54.5-33.3C131.8,109.2,161.9,93.9,195,86.8z
				 M37.4,292.2h30.3c5.5,0,10-4.5,10-10s-4.5-10-10-10H37.4c2.4-49.4,22.9-94.1,55-127.8c19.3,16.9,41.2,30.1,64.7,39.3
				c-5.9,30.1-9,63.7-9,98.5c0,35.2,3.2,69.1,9.2,99.5c-23.3,9.1-45.1,22.2-64.3,38.9C60.5,386.8,39.9,341.8,37.4,292.2z
				 M107.5,434.3c16.3-13.9,34.6-25,54.1-32.9c2.9,11.6,6.3,22.6,10.1,32.7c6.7,17.9,14.6,32.5,23.2,43.5
				C162.1,470.5,132.3,455.3,107.5,434.3z M237,482c-20.7,0-42.9-33-56.3-87.2c18.1-5.3,37-8.1,56.3-8.1c19.3,0,38.2,2.8,56.3,8.1
				C279.8,449,257.7,482,237,482z M278.9,477.6c8.7-11,16.5-25.6,23.2-43.5c3.8-10.1,7.2-21.1,10.1-32.7c19.5,7.9,37.8,19,54.1,32.9
				C341.7,455.3,311.8,470.5,278.9,477.6z M381.1,420.5c-19.2-16.7-41-29.8-64.3-38.9c5.4-27.5,8.6-57.9,9.1-89.5h110.7
				C434.1,341.8,413.4,386.8,381.1,420.5z"/>
			<path class="st0" d="M450.3,88.9c0-30-24.4-54.4-54.4-54.4c-30,0-54.4,24.4-54.4,54.4c0,30,24.4,54.4,54.4,54.4
				C425.9,143.3,450.3,118.9,450.3,88.9z M361.5,88.9c0-19,15.4-34.4,34.4-34.4s34.4,15.4,34.4,34.4s-15.4,34.4-34.4,34.4
				S361.5,107.9,361.5,88.9z"/>
		</g>
	</g>
</g>
</svg>
